<?xml version="1.0" standalone="no"?>
<!DOCTYPE svg PUBLIC "-//W3C//DTD SVG 20010904//EN"
 "http://www.w3.org/TR/2001/REC-SVG-20010904/DTD/svg10.dtd">
<svg version="1.0" xmlns="http://www.w3.org/2000/svg"
 width="512.000000pt" height="512.000000pt" viewBox="0 0 512.000000 512.000000"
 preserveAspectRatio="xMidYMid meet">

<g transform="translate(0.000000,512.000000) scale(0.100000,-0.100000)"
fill="#000000" stroke="none">
<path d="M2350 5109 c-554 -62 -1025 -354 -1334 -826 -240 -366 -348 -833
-291 -1258 51 -382 193 -682 480 -1015 146 -170 258 -336 347 -517 l71 -143
-40 -39 c-75 -72 -93 -178 -45 -270 l21 -40 -24 -53 c-33 -70 -32 -129 0 -195
l26 -51 -22 -42 c-30 -57 -36 -129 -15 -184 19 -49 73 -108 115 -126 25 -10
29 -18 35 -72 12 -114 65 -195 161 -246 l50 -27 675 0 675 0 55 31 c94 53 150
146 150 247 0 42 3 48 33 63 120 61 169 206 105 314 -26 44 -26 46 -8 68 10
12 24 47 31 78 11 47 10 62 -4 108 -10 30 -24 59 -32 66 -13 10 -11 18 9 54
53 91 43 184 -31 266 l-44 49 32 73 c84 195 232 416 435 653 435 506 558 1175
334 1810 -186 524 -609 952 -1117 1129 -260 90 -566 125 -833 95z m381 -150
c843 -86 1473 -760 1525 -1629 15 -263 -51 -571 -176 -820 -58 -114 -149 -247
-252 -367 -222 -258 -331 -425 -438 -670 l-45 -102 -786 -1 -787 0 -22 58
c-90 226 -243 465 -458 711 -273 314 -414 661 -429 1061 -14 375 100 752 325
1070 86 122 270 306 392 392 328 232 742 339 1151 297z m690 -3750 c51 -27 43
-109 -13 -128 -21 -7 -230 -11 -623 -11 -580 0 -592 0 -610 -20 -28 -31 -24
-79 9 -107 l27 -23 603 0 c591 0 603 0 621 -20 10 -11 18 -34 18 -50 0 -16 -8
-39 -18 -50 -18 -20 -29 -20 -876 -20 l-858 0 -21 22 c-23 25 -26 66 -6 94 12
16 31 20 126 24 102 5 114 7 131 29 22 28 25 70 5 97 -12 16 -31 20 -127 25
-101 5 -114 8 -131 28 -24 31 -23 70 4 98 l21 23 849 0 c580 0 856 -3 869 -11z
m-13 -590 c56 -19 64 -101 13 -128 -13 -8 -290 -11 -870 -11 l-850 0 -20 26
c-33 42 -23 96 22 114 33 13 1667 13 1705 -1z m-120 -339 c-4 -35 -13 -59 -29
-77 -50 -54 -39 -53 -706 -53 -584 0 -620 1 -653 19 -42 22 -67 61 -76 119
l-7 42 738 0 738 0 -5 -50z"/>
<path d="M2410 4097 c-139 -44 -1225 -419 -1251 -433 -38 -19 -52 -66 -35
-109 8 -18 23 -38 35 -44 11 -6 98 -38 193 -70 95 -32 181 -62 191 -66 16 -7
17 -33 17 -359 0 -347 0 -352 24 -401 25 -54 71 -100 123 -122 26 -10 186 -13
848 -13 886 0 846 -2 921 55 18 13 43 46 55 72 24 47 24 55 29 407 l5 359 143
48 142 48 0 -194 c0 -187 1 -195 23 -219 32 -36 74 -39 107 -6 19 19 20 33 20
298 l0 279 -24 22 c-27 25 -583 220 -629 221 -34 0 -77 -43 -77 -77 0 -45 39
-67 233 -133 103 -34 190 -66 192 -70 3 -4 -237 -90 -533 -191 -501 -172 -542
-184 -607 -183 -64 0 -115 16 -607 185 -295 101 -534 187 -530 190 6 5 287
102 902 311 236 80 244 80 497 -6 106 -36 199 -66 207 -66 30 0 66 41 66 75 0
57 -22 70 -230 141 -172 59 -206 67 -285 70 -74 4 -104 0 -165 -19z"/>
</g>
</svg>
