<?xml version="1.0" standalone="no"?>
<!DOCTYPE svg PUBLIC "-//W3C//DTD SVG 20010904//EN"
 "http://www.w3.org/TR/2001/REC-SVG-20010904/DTD/svg10.dtd">
<svg version="1.0" xmlns="http://www.w3.org/2000/svg"
width="736.000000pt" height="736.000000pt" viewBox="0 0 360.000000 360.000000"
 preserveAspectRatio="xMidYMid meet">

<g transform="translate(0.000000,360.000000) scale(0.100000,-0.100000)"
fill="#000000" stroke="none">
<path d="M0 1800 l0 -1800 1800 0 1800 0 0 1800 0 1800 -1800 0 -1800 0 0
-1800z m2550 1151 c5 -8 8 -119 7 -246 -2 -180 -5 -236 -16 -248 -12 -15 -39
-17 -205 -17 -210 0 -236 -4 -236 -31 0 -10 -4 -21 -10 -24 -6 -4 -10 -82 -10
-201 l0 -194 223 0 c205 0 225 -2 241 -18 16 -18 17 -45 4 -67 -3 -5 -11 -68
-18 -140 -6 -71 -16 -139 -20 -150 -5 -11 -12 -45 -16 -75 -3 -30 -11 -61 -16
-67 -8 -10 -61 -13 -204 -13 l-194 0 -1 -387 c-1 -214 -1 -396 0 -406 2 -10
-8 -21 -24 -27 -28 -11 -532 -14 -559 -4 -14 5 -16 51 -16 415 l0 409 -204 0
c-151 0 -206 3 -213 13 -14 16 -16 474 -2 498 9 18 24 19 214 19 l203 0 5 293
c4 303 3 292 50 399 10 21 17 42 17 47 0 6 9 15 20 21 11 6 27 24 35 41 9 17
21 27 27 23 6 -4 8 -3 5 3 -4 6 0 16 8 23 8 7 15 9 15 4 1 -5 7 2 14 15 8 14
21 26 29 27 9 1 30 12 46 23 16 12 38 21 49 21 11 0 25 7 32 15 16 19 67 22
413 21 248 -1 299 -3 307 -15z"  />
<path d="M1900 2880 c-8 -5 -28 -10 -44 -10 -28 0 -96 -32 -127 -60 -70 -63
-109 -104 -109 -114 0 -6 -12 -33 -27 -61 l-27 -50 -5 -321 c-6 -298 -7 -323
-25 -343 -18 -20 -29 -21 -218 -21 l-198 0 0 -185 0 -185 218 -2 217 -3 3
-412 2 -413 220 0 219 0 3 405 c3 348 5 407 18 415 8 5 102 10 208 10 176 0
192 1 193 18 0 30 18 145 29 197 6 28 14 74 19 103 l7 52 -216 0 c-211 0 -216
0 -235 23 -18 20 -20 40 -23 235 -2 123 0 218 6 225 5 7 12 23 16 37 3 14 17
39 31 55 l25 30 200 3 200 3 0 190 0 189 -282 0 c-166 0 -289 -4 -298 -10z" fill="#ff901b"/>
</g>
</svg>
