<?xml version="1.0" standalone="no"?>
<!DOCTYPE svg PUBLIC "-//W3C//DTD SVG 20010904//EN"
 "http://www.w3.org/TR/2001/REC-SVG-20010904/DTD/svg10.dtd">
<svg version="1.0" xmlns="http://www.w3.org/2000/svg"
 width="736.000000pt" height="736.000000pt" viewBox="0 0 736.000000 736.000000"
 preserveAspectRatio="xMidYMid meet">

<g transform="translate(0.000000,736.000000) scale(0.100000,-0.100000)"
fill="#000000" stroke="none">
<path d="M0 3680 l0 -3680 3680 0 3680 0 0 3680 0 3680 -3680 0 -3680 0 0
-3680z m4889 2301 c267 -45 525 -181 703 -370 154 -163 265 -379 313 -610 23
-109 22 -2275 -1 -2395 -44 -227 -166 -456 -333 -623 -171 -173 -366 -279
-621 -339 -69 -17 -162 -18 -1162 -21 -921 -3 -1101 -1 -1185 11 -267 40 -500
155 -684 336 -179 176 -287 380 -347 650 -14 66 -17 194 -20 1115 -2 697 0
1075 7 1145 31 300 145 544 351 751 208 210 461 329 760 358 142 14 2132 7
2219 -8z" />
<path d="M2680 5499 c-281 -36 -511 -228 -605 -504 -33 -97 -36 -202 -33
-1245 3 -1010 4 -1037 24 -1105 71 -242 258 -434 494 -507 l75 -23 1070 -3
c927 -2 1080 -1 1146 13 224 45 410 188 508 389 81 167 76 88 76 1296 0 1212
5 1122 -79 1295 -94 190 -264 323 -496 387 -54 14 -2073 21 -2180 7z m2231
-371 c92 -27 161 -124 162 -226 1 -138 -105 -245 -243 -245 -97 0 -176 50
-216 138 -92 195 88 396 297 333z m-936 -377 c180 -51 312 -127 443 -255 209
-203 307 -460 288 -757 -8 -125 -36 -233 -91 -347 -56 -116 -90 -167 -177
-258 -186 -196 -425 -296 -703 -295 -151 0 -271 26 -399 84 -263 122 -462 357
-538 638 -32 122 -33 366 0 489 67 252 240 475 466 604 83 48 235 102 324 116
92 15 306 4 387 -19z" fill="#ff901b" />
<path d="M3618 4275 c-118 -32 -214 -101 -281 -202 -54 -82 -77 -161 -77 -272
0 -130 40 -231 129 -324 63 -67 115 -101 191 -125 90 -28 150 -34 233 -21 157
24 287 120 359 266 39 79 43 92 46 184 7 158 -38 272 -148 377 -116 111 -301
159 -452 117z" fill="#ff901b" />
</g>
</svg>
