<?xml version="1.0" standalone="no"?>
<!DOCTYPE svg PUBLIC "-//W3C//DTD SVG 20010904//EN"
 "http://www.w3.org/TR/2001/REC-SVG-20010904/DTD/svg10.dtd">
<svg version="1.0" xmlns="http://www.w3.org/2000/svg"
 width="256.000000pt" height="256.000000pt" viewBox="0 0 256.000000 256.000000"
 preserveAspectRatio="xMidYMid meet">

<g transform="translate(0.000000,256.000000) scale(0.100000,-0.100000)"
fill="#000000" stroke="none">
<path d="M1385 2406 c-30 -13 -95 -79 -95 -96 0 -5 -16 -2 -35 6 -79 32 -176
3 -223 -69 l-27 -41 -3 -628 c-1 -345 -6 -628 -9 -628 -4 0 -50 42 -102 94
-119 116 -159 138 -267 144 -137 7 -209 -40 -209 -139 0 -44 11 -63 186 -325
103 -154 216 -313 252 -355 76 -89 177 -160 280 -198 68 -24 85 -26 294 -29
179 -3 233 -1 285 13 187 47 332 163 417 332 56 113 61 153 61 532 0 331 -1
346 -21 389 -40 81 -143 122 -224 88 -29 -13 -41 -14 -44 -5 -9 28 -75 89
-108 100 -34 11 -101 8 -135 -6 -16 -6 -17 18 -20 358 l-3 365 -31 39 c-17 21
-46 46 -65 55 -40 21 -111 23 -154 4z m136 -105 l29 -29 0 -459 c0 -483 0
-483 45 -483 31 0 45 19 45 62 0 50 18 86 51 104 40 20 63 17 98 -12 31 -25
31 -27 31 -120 0 -81 3 -97 20 -114 25 -25 35 -25 60 0 14 14 20 33 20 68 0
52 22 83 68 97 33 10 80 -13 97 -46 21 -40 21 -633 0 -732 -40 -189 -210 -356
-403 -396 -84 -17 -402 -14 -476 5 -179 46 -260 126 -516 509 -104 157 -190
289 -190 293 0 28 31 46 88 50 94 7 124 -8 243 -125 83 -81 114 -105 141 -109
40 -7 92 15 108 45 6 13 10 232 10 636 0 660 0 658 49 685 47 24 113 -2 130
-51 7 -21 11 -159 11 -408 0 -387 1 -401 39 -401 8 0 23 7 33 17 17 15 18 43
18 452 1 327 4 440 13 452 36 47 96 51 138 10z" fill="#ff901b"/>
<path d="M518 2233 c-100 -99 -120 -131 -98 -158 23 -28 53 -16 112 42 l58 57
0 -344 0 -344 -58 57 c-32 31 -65 57 -74 57 -21 0 -48 -27 -48 -47 0 -9 46
-62 102 -119 78 -80 108 -104 128 -104 20 0 50 24 128 104 56 57 102 110 102
119 0 20 -27 47 -48 47 -9 0 -42 -26 -74 -57 l-58 -57 0 344 0 344 58 -57 c35
-34 66 -57 79 -57 26 0 47 33 38 59 -10 32 -200 211 -225 211 -15 0 -55 -32
-122 -97z" fill="#ff901b" />

</g>
</svg>
