<?xml version="1.0" standalone="no"?>
<!DOCTYPE svg PUBLIC "-//W3C//DTD SVG 20010904//EN" "http://www.w3.org/TR/2001/REC-SVG-20010904/DTD/svg10.dtd">
<svg version="1.0" xmlns="http://www.w3.org/2000/svg"
    width="735.000000pt" height="458.000000pt" viewBox="0 0 735.000000 458.000000"
    preserveAspectRatio="xMidYMid meet">

    <g transform="translate(0.000000,458.000000) scale(0.100000,-0.100000)"
        fill="#000" stroke="none">
        <path
            d="M3475 4133 c-457 -60 -841 -250 -1140 -565 -252 -264 -407 -565 -481
-932 -24 -114 -27 -156 -28 -331 -1 -272 31 -452 121 -685 225 -584 739 -1018
1358 -1147 166 -34 458 -43 625 -19 342 50 650 183 910 393 88 72 246 233 311
318 168 220 284 479 345 770 26 120 28 148 28 355 0 207 -2 236 -28 355 -81
389 -259 712 -537 980 -288 276 -632 443 -1032 500 -93 13 -374 18 -452 8z
m-548 -772 l293 -1 286 -382 c158 -211 289 -385 291 -388 2 -2 7 0 11 6 13 20
705 764 711 765 51 4 190 2 189 -3 -4 -9 -205 -229 -551 -600 -172 -186 -265
-293 -260 -301 4 -7 213 -287 465 -623 252 -337 458 -615 458 -618 0 -9 -663
-7 -677 2 -6 4 -149 192 -317 417 -169 226 -310 411 -315 413 -5 2 -168 -169
-363 -380 -195 -211 -370 -400 -390 -420 l-35 -38 -98 0 c-91 0 -97 1 -84 18
16 20 16 20 504 547 204 219 369 402 368 406 -2 4 -197 267 -434 584 -237 318
-433 583 -435 589 -3 8 10 11 43 10 27 -1 180 -3 340 -3z"
            fill="#ff901b" />
        <path
            d="M2841 3200 c8 -11 320 -429 694 -930 l680 -909 153 -1 c106 0 153 3
150 11 -2 6 -313 424 -692 930 l-688 919 -155 0 c-154 0 -155 0 -142 -20z"
            fill="#ff901b" />
    </g>
</svg>